<svg
	class="img-fluid"
	id="outputsvg"
	xmlns="http://www.w3.org/2000/svg"
	style="
		transform: none;
		transform-origin: 50% 50% 0px;
		cursor: move;
		max-height: none;
		transition: none;
	"
	width="450"
	height="512"
	viewBox="0 0 4500 5120"
>
	<g
		id="l2K9vRy4qyNOw9MAR67CXn6"
		fill="rgb(155,220,16)"
		style="transform: none"
	>
		<g style="transform: none">
			<path
				id="pQu3Ztdx8"
				d="M1325 4856 l-910 -263 -207 -2274 c-114 -1251 -207 -2284 -208 -2296 l0 -23 2250 0 2250 0 0 23 c-1 12 -94 1045 -208 2296 l-207 2274 -915 263 c-503 145 -919 264 -925 263 -5 0 -419 -119 -920 -263z m1662 -391 c378 -107 691 -199 696 -204 8 -8 356 -3748 357 -3828 l0 -23 -885 0 -885 0 0 280 0 280 -700 0 c-575 0 -700 2 -700 13 0 35 251 2801 255 2805 3 3 846 239 1118 313 l37 10 0 274 c0 170 4 275 10 275 5 0 319 -88 697 -195z"
			></path>
			<path
				id="pameVV3KB"
				d="M1890 3501 l-295 -87 -8 -44 c-10 -57 -157 -1780 -157 -1837 l0 -43 420 0 420 0 0 1050 0 1050 -42 -1 c-24 0 -176 -40 -338 -88z"
			></path>
		</g>
	</g>
	<g
		id="l6fVAcoqlt8zDQbvX2RHJ8j"
		fill="rgb(194,248,79)"
		style="transform: none"
	>
		<g style="transform: none">
			<path
				id="pBKSuLYFI"
				d="M2250 4429 c0 -257 -2 -283 -17 -295 -10 -7 -15 -15 -12 -18 4 -4 235 -72 515 -152 280 -80 538 -154 574 -164 l66 -20 23 -256 c12 -141 21 -258 18 -260 -2 -2 -254 70 -560 161 -554 164 -647 186 -647 150 0 -8 7 -15 15 -15 13 0 15 -120 15 -1020 0 -900 -2 -1020 -15 -1020 -8 0 -15 -7 -15 -15 0 -13 54 -15 425 -15 l425 0 0 23 c0 12 -9 137 -20 277 -11 140 -20 258 -20 263 0 4 114 7 253 7 l253 0 47 -532 c26 -293 48 -539 47 -545 0 -10 -148 -13 -705 -13 -620 0 -705 -2 -705 -15 0 -8 7 -15 15 -15 13 0 15 -38 15 -280 l0 -280 914 0 c503 0 917 3 919 8 8 13 -350 3893 -360 3903 -7 7 -1440 419 -1459 419 -2 0 -4 -127 -4 -281z"
			></path>
			<path
				id="pejHNQELR"
				d="M414 4586 c-3 -8 -4 -23 -1 -33 3 -12 5 -9 6 9 0 14 7 29 14 31 9 4 9 6 -1 6 -7 1 -15 -5 -18 -13z"
			></path>
		</g>
	</g>
	<g
		id="l18KgdBsg6itNSVFPIoQwHC"
		fill="rgb(255,255,255)"
		style="transform: none"
	>
		<g style="transform: none">
			<path
				id="prRVUfazl"
				d="M1667 3981 c-313 -88 -570 -161 -572 -163 -3 -2 -61 -634 -130 -1404 -68 -769 -127 -1416 -130 -1436 l-5 -38 1416 0 1417 0 -6 38 c-3 20 -27 279 -53 575 l-48 537 -283 0 -283 0 0 -35 c0 -42 27 -418 35 -487 l6 -48 -786 0 c-741 0 -785 1 -785 18 1 74 160 1836 166 1842 12 11 597 180 623 180 11 0 287 -79 612 -175 326 -96 593 -174 595 -172 2 1 -9 136 -24 300 l-26 297 -66 20 c-236 69 -1059 302 -1080 305 -14 2 -281 -67 -593 -154z"
			></path>
		</g>
	</g>
</svg>
